<svg xmlns="http://www.w3.org/2000/svg"  viewBox="0 0 469.337 469.337">
<path style="fill:#CF3B00;" d="M290.202,170.667L290.202,170.667c-42.232,0-70.705,43.181-54.069,81.998l77.578,181.016
	c9.27,21.629,30.537,35.653,54.069,35.653h0c42.232,0,70.705-43.181,54.069-81.998L344.27,206.32
	C335.001,184.691,313.733,170.667,290.202,170.667L290.202,170.667z"/>
<path style="fill:#AF2D00;" d="M309.335,277.337L309.335,277.337c5.891,0,10.667,4.776,10.667,10.667V394.67
	c0,5.891-4.776,10.667-10.667,10.667l0,0c-5.891,0-10.667-4.776-10.667-10.667V288.004
	C298.669,282.113,303.444,277.337,309.335,277.337z"/>
<path style="fill:#E35522;" d="M341.335,344.796v26.137c0,13.694,11.101,24.795,24.795,24.795c2.665,0,5.313-0.43,7.841-1.272
	l7.841-2.614c12.991-4.33,20.012-18.372,15.682-31.364l0,0l-7.841-23.523C386.278,326.83,376.803,320,366.13,320
	C352.436,320,341.335,331.102,341.335,344.796z"/>
<circle style="fill:#B8003A;" cx="234.669" cy="191.997" r="128"/>
<path style="fill:#FF5300;" d="M234.669,170.667L234.669,170.667c35.346,0,64,28.654,64,64v170.67c0,35.346-28.654,64-64,64l0,0
	c-35.346,0-64-28.654-64-64v-170.67C170.669,199.321,199.322,170.667,234.669,170.667z"/>
<path style="fill:#F24200;" d="M250.095,192L250.095,192c-12.646,0-23.941,7.911-28.263,19.796L172.505,343.65
	c-5.676,15.609,2.376,32.864,17.985,38.54c3.294,1.198,6.772,1.811,10.277,1.811h0c12.646,0,23.941-7.911,28.263-19.796
	l49.327-131.853c5.676-15.609-2.376-32.864-17.985-38.54C257.078,192.613,253.6,192,250.095,192L250.095,192z"/>
<path style="fill:#FF6F29;" d="M227.291,306.443l22.313-55.783c3.864-9.659,13.219-15.993,23.622-15.993
	c14.051,0,25.442,11.391,25.442,25.442l0,0v55.783c0,14.051-11.391,25.442-25.442,25.442l0,0h-22.313
	c-14.051,0-25.442-11.391-25.442-25.442C225.472,312.655,226.089,309.448,227.291,306.443L227.291,306.443z"/>
<path style="fill:#FF9968;" d="M179.135,170.667L179.135,170.667c42.232,0,70.705,43.181,54.069,81.998l-77.578,181.016
	c-9.27,21.629-30.537,35.653-54.069,35.653h0c-42.232,0-70.705-43.181-54.069-81.998l77.578-181.016
	C134.336,184.691,155.604,170.667,179.135,170.667L179.135,170.667z"/>
<path style="fill:#FFB38E;" d="M161.115,173.56c-16.188,5.192-29.335,17.14-36.048,32.759L47.574,387.138
	c0.809,10.828,10.243,18.95,21.07,18.141c7.393-0.552,13.847-5.217,16.691-12.064l83.798-195.283
	C172.87,188.944,169.458,178.575,161.115,173.56L161.115,173.56z"/>
<path style="fill:#FF8347;" d="M155.626,433.68l77.579-181.016c12.496-29.158-0.467-60.762-25.589-74.693
	c-3.475,2.834-6.245,6.436-8.094,10.521L96.734,428.335c-6.355,14.9,0.573,32.131,15.473,38.486
	c0.779,0.332,1.572,0.631,2.377,0.894C132.925,463.596,148.183,450.942,155.626,433.68L155.626,433.68z"/>
<g>
	<path style="fill:#E9003A;" d="M384.002,128c-11.782,0-21.333-9.551-21.333-21.333c0,0,0,0,0,0V96c0-17.673-14.327-32-32-32
		s-32,14.327-32,32v149.333c0,17.673,14.327,32,32,32s32-14.327,32-32v-10.667c0-11.782,9.551-21.333,21.333-21.333
		c11.782,0,21.333-9.551,21.333-21.333l0,0v-42.667C405.335,137.552,395.784,128,384.002,128L384.002,128z"/>
	<path style="fill:#E9003A;" d="M405.332,42.667L405.332,42.667c11.783,0,21.334,9.551,21.334,21.333v0.001
		c0,11.782-9.551,21.333-21.333,21.333h-0.001c-11.782,0-21.333-9.551-21.333-21.333V64
		C383.999,52.218,393.55,42.667,405.332,42.667z"/>
	<path style="fill:#E9003A;" d="M266.669,0L266.669,0c17.673,0,32,14.327,32,32v64c0,17.673-14.327,32-32,32l0,0
		c-17.673,0-32-14.327-32-32V32C234.669,14.327,248.995,0,266.669,0z"/>
</g>
<path style="fill:#B8003A;" d="M256.002,42.667L256.002,42.667c11.783,0,21.334,9.551,21.334,21.333v64.004
	c0,11.782-9.551,21.333-21.333,21.333h-0.001c-11.782,0-21.333-9.551-21.333-21.333V64C234.669,52.218,244.22,42.667,256.002,42.667
	z"/>
<path style="fill:#E9003A;" d="M128.002,64c-11.782,0-21.333,9.55-21.333,21.332c0,0,0,0.001,0,0.001v5.603
	c0,18.441-10.325,34.394-25.198,45.296c-10.988,8.03-17.479,20.825-17.468,34.435v40.383c0,21.254,14.523,40.953,35.501,44.366
	c23.249,3.941,45.29-11.71,49.232-34.959c0.399-2.354,0.6-4.737,0.601-7.124v-128c0-11.782-9.55-21.333-21.332-21.333
	C128.003,64,128.002,64,128.002,64L128.002,64z"/>
<path style="fill:#FFD300;" d="M288.002,149.334c-17.673,0-32-14.327-32-32c0,0,0,0,0,0V96c0-17.673-14.327-32-32-32
	s-32,14.327-32,32v105.698c0,17.594,13.824,32.729,31.418,32.965c0.28,0.003,0.559,0.003,0.839,0.003
	c16.497-0.096,32.143,6.564,45.793,15.829c14.635,9.911,34.534,6.082,44.445-8.553c3.587-5.296,5.504-11.546,5.505-17.942v-42.667
	C320.002,163.661,305.675,149.334,288.002,149.334C288.002,149.334,288.002,149.334,288.002,149.334L288.002,149.334z"/>
<path style="fill:#FFA200;" d="M234.671,85.337h0.001c11.782,0,21.333,9.551,21.333,21.333v85.334
	c0,11.782-9.551,21.333-21.333,21.333h-0.001c-11.782,0-21.333-9.551-21.333-21.333V106.67
	C213.339,94.888,222.89,85.337,234.671,85.337z"/>
<g>
	<path style="fill:#E9003A;" d="M213.335,42.667h-1.725c-9.847,0-18.131-5.663-24.294-13.343c-7.37-9.193-20.797-10.672-29.99-3.302
		c-5.051,4.049-7.99,10.172-7.99,16.645V128c0,11.782,9.551,21.333,21.333,21.333h1.726c9.847,0,18.13,5.663,24.293,13.343
		c7.369,9.193,20.796,10.672,29.989,3.303c5.051-4.049,7.991-10.172,7.991-16.646V64C234.669,52.218,225.117,42.667,213.335,42.667z
		"/>
	<path style="fill:#E9003A;" d="M309.339,213.337L309.339,213.337c17.673,0,32,14.327,32,32v42.67c0,17.673-14.327,32-32,32l0,0
		c-17.673,0-32-14.327-32-32v-42.67C277.339,227.664,291.665,213.337,309.339,213.337z"/>
</g>
<path style="fill:#B8003A;" d="M384.002,127.997L384.002,127.997c11.783,0,21.334,9.551,21.334,21.333v42.664
	c0,11.782-9.551,21.333-21.333,21.333h-0.001c-11.782,0-21.333-9.551-21.333-21.333V149.33
	C362.669,137.548,372.22,127.997,384.002,127.997z"/>
<path style="fill:#F3778B;" d="M309.335,85.337L309.335,85.337c5.891,0,10.667,4.776,10.667,10.667v42.666
	c0,5.891-4.776,10.667-10.667,10.667l0,0c-5.891,0-10.667-4.776-10.667-10.667V96.004C298.669,90.113,303.444,85.337,309.335,85.337
	z"/>
<path style="fill:#B8003A;" d="M330.665,170.667L330.665,170.667c5.891,0,10.667,4.776,10.667,10.667v63.996
	c0,5.891-4.776,10.667-10.667,10.667l0,0c-5.891,0-10.667-4.776-10.667-10.667v-63.996
	C319.999,175.443,324.774,170.667,330.665,170.667z"/>
<g>
	<path style="fill:#F3778B;" d="M288.005,234.667L288.005,234.667c5.891,0,10.667,4.776,10.667,10.667V288
		c0,5.891-4.776,10.667-10.667,10.667l0,0c-5.891,0-10.667-4.776-10.667-10.667v-42.666
		C277.339,239.443,282.114,234.667,288.005,234.667z"/>
	<path style="fill:#F3778B;" d="M160.005,42.667L160.005,42.667c5.891,0,10.666,4.776,10.666,10.667v63.996
		c0,5.891-4.776,10.667-10.667,10.667h0c-5.891,0-10.667-4.776-10.667-10.667V53.334C149.339,47.443,154.114,42.667,160.005,42.667z
		"/>
	<path style="fill:#F3778B;" d="M85.332,149.337L85.332,149.337c11.783,0,21.334,9.551,21.334,21.333v42.664
		c0,11.782-9.551,21.333-21.333,21.333h-0.001c-11.782,0-21.333-9.551-21.333-21.333V170.67
		C63.999,158.888,73.55,149.337,85.332,149.337z"/>
</g>
<path style="fill:#B8003A;" d="M213.331,42.667h0.001c11.782,0,21.333,9.551,21.333,21.333v85.334
	c0,11.782-9.551,21.333-21.333,21.333h-0.001c-11.782,0-21.333-9.551-21.333-21.333V64C191.999,52.218,201.55,42.667,213.331,42.667
	z"/>
</svg>
