<?xml version="1.0" encoding="utf-8"?>
<svg xmlns="http://www.w3.org/2000/svg"
	 xmlns:xlink="http://www.w3.org/1999/xlink"
	 width="32" height="256"
	 viewbox="0 0 32 256">
<defs>
	<g  id="facebook">
		
			<path  d="M27.2 1.6H4.8a3.2 3.2 0 0 0-3.2 3.2v22.4c0 1.8 1.4 3.2 3.2 3.2H16V19.2h-3.2v-4H16V12c0-3.5 2-6 6-6h3v4.2h-2c-1.6 0-2.2 1.2-2.2 2.3v2.7h4.1l-.9 4h-3.2v11.2h6.4c1.8 0 3.2-1.4 3.2-3.2V4.8c0-1.8-1.4-3.2-3.2-3.2z">
			</path>
	</g>
	<g  id="google">
		
			<path  d="M3.2 9c0 2.3.8 4 2.4 5 1.2.9 2.7 1 3.5 1h.5s-.3 1.6 1 3.2h-.1c-2.1 0-8.8.4-8.8 6S7.8 30 9 30h.4c.8 0 2.8-.1 4.7-1 2.5-1.2 3.8-3.3 3.8-6.3 0-2.8-2-4.5-3.3-5.7-.9-.7-1.6-1.4-1.6-2 0-.7.5-1.1 1.2-1.8a6 6 0 0 0 2.1-5c0-2.3-.3-3.9-2.1-4.9l1.2-.2c1-.1 2.5-.3 2.5-1.1v-.2h-7.4s-7.4.3-7.4 7zM15 23.3c.1 2.2-1.8 3.9-4.7 4-3 .3-5.4-1-5.5-3.3 0-1 .4-2.1 1.3-3a6.1 6.1 0 0 1 4.2-1.5c2.7 0 4.5 1.6 4.7 3.8zm-2-16c.8 2.5-.3 5.2-2 5.7h-.7c-1.6 0-3.1-1.5-3.7-3.8a5.5 5.5 0 0 1 0-3.3c.4-1 1-1.8 1.9-2h.6c2 0 3.2.7 4 3.4zm12.5 5.4V8h-3.2v4.8h-4.8V16h4.8v4.8h3.2V16h4.8v-3.2h-4.8z">
			</path>
	</g>
	<g  id="linkedin">
		
			<path  d="M8 4.8A3 3 0 0 1 4.8 8c-2 0-3.2-1.4-3.2-3.1 0-1.8 1.2-3.3 3.2-3.3S8 3.1 8 4.8zM1.6 30.4V9.6H8v20.8H1.6zm9.6-13.7c0-2.5 0-4.5-.2-6.3h5.8L17 13a7.1 7.1 0 0 1 6.2-3.2c4 0 7.1 2.8 7.1 8.6v11.9H24v-11c0-2.5-1-4.5-3.2-4.5-1.7 0-2.5 1.4-3 2.5-.2.4-.2 1-.2 1.6v11.4h-6.4V16.7z">
			</path>
	</g>
	<g  id="twitter">
		
			<path  d="M27.7 10v.8A17 17 0 0 1 1.3 25.2a12.3 12.3 0 0 0 9-2.5 6 6 0 0 1-5.7-4.1 6.2 6.2 0 0 0 2.7-.1 6 6 0 0 1-4.8-6 6 6 0 0 0 2.7.7 6 6 0 0 1-1.9-8c3 3.6 7.5 6 12.5 6.3l-.2-1.4a6 6 0 0 1 10.5-4.2 11 11 0 0 0 3.8-1.4 6 6 0 0 1-2.6 3.3c1.2-.1 2.3-.4 3.4-1-.8 1.3-1.8 2.3-3 3.2z">
			</path>
	</g>
</defs>
	<use x="0" y="0" xlink:href="#facebook" />
	<use x="0" y="32" xlink:href="#google" />
	<use x="0" y="64" xlink:href="#linkedin" />
	<use x="0" y="96" xlink:href="#twitter" />
	<use x="0" y="128" xlink:href="#facebook" fill="#00ff00"/>
	<use x="0" y="160" xlink:href="#google" fill="#00ff00"/>
	<use x="0" y="192" xlink:href="#linkedin" fill="#00ff00"/>
	<use x="0" y="224" xlink:href="#twitter" fill="#00ff00"/>
</svg>
