<svg xmlns="http://www.w3.org/2000/svg"
     xmlns:xlink="http://www.w3.org/1999/xlink">
  <symbol  viewBox='0 0 24 24' id='outline-settings-24px'>
    <path fill="none" d="M0 0h24v24H0V0z"></path>
    <path d="M19.4 13a7.8 7.8 0 0 0 0-2l2.1-1.6c.2-.2.3-.5.2-.7l-2-3.4A.5.5 0 0 0 19 5l-2.4 1-1.7-1-.4-2.6c0-.2-.3-.4-.5-.4h-4c-.3 0-.5.2-.5.4l-.4 2.7c-.6.2-1.1.6-1.7 1L5 5h-.1c-.2 0-.4 0-.5.2l-2 3.4c0 .3 0 .5.2.7l2 1.6a8 8 0 0 0 0 2l-2 1.6c-.2.2-.3.5-.2.7l2 3.4a.5.5 0 0 0 .7.3l2.4-1 1.7 1 .4 2.6c0 .2.3.4.5.4h4c.3 0 .5-.2.5-.4l.4-2.7c.6-.2 1.1-.6 1.7-1l2.5 1h.1c.2 0 .4 0 .5-.2l2-3.4c0-.3 0-.5-.2-.7l-2-1.6zm-2-1.7a5.3 5.3 0 0 1 0 1.4V14l.8.7 1 .8-.6 1.2-1.3-.5-1-.4-1 .7-1.2.7-1 .4-.2 1.1-.2 1.4h-1.4l-.2-1.4-.1-1-1.1-.5-1.2-.7-1-.7-1 .4-1.3.5-.7-1.2 1.1-.8.9-.7-.2-1.2a8 8 0 0 1 0-1.4l.2-1.2-.9-.7-1-.8.6-1.2 1.3.5 1 .4 1-.7L9.8 7l1-.4.2-1.1.2-1.4h1.4l.2 1.4.1 1L14 7l1.2.7 1 .7 1-.4 1.3-.5.7 1.2-1.1.8-.9.7.1 1.2z"></path><path d="M12 8a4 4 0 1 0 0 8 4 4 0 0 0 0-8zm0 6c-1.1 0-2-.9-2-2s.9-2 2-2 2 .9 2 2-.9 2-2 2z"></path>
  </symbol>
  <symbol  viewBox='0 0 24 24' id='outline-today-24px'>
    <path fill="none" d="M0 0h24v24H0V0z"></path>
    <path d="M19 3h-1V1h-2v2H8V1H6v2H5a2 2 0 0 0-2 2v14c0 1.1.9 2 2 2h14a2 2 0 0 0 2-2V5a2 2 0 0 0-2-2zm0 16H5V9h14v10zm0-12H5V5h14v2z"></path><path d="M7 11h5v5H7z"></path>
  </symbol>
  <symbol  viewBox='0 0 24 24' id='outline-verified_user-24px'>
    <path fill="none" d="M0 0h24v24H0V0z"></path>
    <path d="M12 1L3 5v6c0 5.5 3.8 10.7 9 12 5.2-1.3 9-6.5 9-12V5l-9-4zm7 10c0 4.5-3 8.7-7 10-4-1.3-7-5.5-7-10V6.3l7-3.1 7 3.1V11z"></path><path d="M7.4 11.6L6 13l4 4 8-8-1.4-1.4-6.6 6.6z"></path>
  </symbol>
</svg>